#!OML:ASF I:\Actors\actors\Patient Classification 1\Patient 1\Session 1\Subject1.ASF
:FULLY-SPECIFIED
:DEGREES
1918
root 0.146297 16.8126 8.12817 68.0637 22.5808 -9.52031
lowerback 41.1728 -0.583782 3.586
upperback 2.89156 0.671263 -1.13634
thorax -16.8007 -2.82373e-005 -3.48706
lowerneck 2.73935 -3.63896 -2.95625
upperneck -31.2772 -1.95985 13.7334
head -10.1236 -2.15898 5.69556
rclavicle 1.35174e-014 -3.3197e-014
rhumerus -53.3906 15.6538 -83.1493
rradius 146.144
rwrist -51.8873
rhand 48.6773 656.533
rfingers 7.12502
rthumb 69.0629 -61.9783
lclavicle 1.35174e-014 -3.3197e-014
lhumerus -61.0773 -20.9104 85.3339
lradius 144.201
lwrist 57.2696
lhand 40.348 -16.1044
lfingers 7.12502
lthumb 62.683 -365.488
rfemur -65.7076 -1.83982 36.6781
rtibia -2.37489
rfoot -5.41889 -4.07615
rtoes 34.9962
lfemur -88.5273 14.6957 -18.7361
ltibia 10.7778
lfoot 10.6042 -9.57233
ltoes 44.6731
1919
root 0.148582 16.7574 8.19255 70.3362 22.226 -9.08157
lowerback 41.3485 -0.162018 2.38424
upperback 3.17746 0.67283 -1.06301
thorax -16.5305 0.0931976 -2.76682
lowerneck 2.99267 -3.66366 -4.11673
upperneck -31.6335 -1.95539 14.4035
head -10.2585 -2.11213 6.19048
rclavicle -1.35174e-014 -3.57812e-014
rhumerus -52.0873 13.7476 -84.334
rradius 146.116
rwrist -52.694
rhand 46.9715 654.962
rfingers 7.12502
rthumb 67.8554 -66.6031
lclavicle -1.35174e-014 -3.57812e-014
lhumerus -59.9187 -19.9918 86.477
lradius 143.898
lwrist 57.1099
lhand 40.871 -15.0752
lfingers 7.12502
lthumb 63.1132 -365.04
rfemur -67.8314 -2.33895 38.1885
rtibia -2.49506
rfoot -4.57507 -2.06921
rtoes 35.0986
lfemur -90.1916 13.9189 -19.7201
ltibia 10.2661
lfoot 10.0915 -10.1042
ltoes 41.6603
1920
root 0.156259 16.704 8.2509 72.3675 22.1888 -8.81416
lowerback 41.533 -0.0280461 1.77501
upperback 3.49364 0.563556 -1.10317
thorax -16.2222 0.0959972 -2.43338
lowerneck 3.52424 -3.65166 -4.62675
upperneck -32.3198 -1.88947 14.7145
head -10.6137 -2.08455 6.47347
rclavicle 2.70347e-014 -9.93923e-015
rhumerus -50.6753 12.1343 -86.0803
rradius 145.968
rwrist -53.1691
rhand 45.4438 653.483
rfingers 7.12502
rthumb 66.7236 -70.5351
lclavicle 2.70347e-014 -9.93923e-015
lhumerus -58.7306 -18.7681 87.403
lradius 143.733
lwrist 56.7885
lhand 43.5486 -17.7718
lfingers 7.12502
lthumb 65.2633 -371.04
rfemur -69.7007 -2.72273 40.1128
rtibia -2.66885
rfoot -3.76599 -0.0921389
rtoes 35.1507
lfemur -91.9171 13.3753 -20.2414
ltibia 10.0999
lfoot 9.66287 -10.443
ltoes 39.4839
1921
root 0.166164 16.6511 8.30296 74.2573 22.4779 -8.58265
lowerback 41.807 0.0274842 1.52499
upperback 3.86428 0.539371 -1.028
thorax -15.8692 0.11244 -2.20144
lowerneck 3.79954 -3.64774 -4.93113
upperneck -32.9208 -1.87307 14.8174
head -10.8948 -2.07112 6.63098
rclavicle 1.66979e-014 -2.68359e-014
rhumerus -49.0096 10.5208 -87.674
rradius 145.76
rwrist -53.8785
rhand 43.8651 652.014
rfingers 7.12502
rthumb 65.5111 -74.288
lclavicle 1.66979e-014 -2.68359e-014
lhumerus -57.2955 -17.4109 88.5146
lradius 143.584
lwrist 56.6552
lhand 45.1019 -17.4403
lfingers 7.12502
lthumb 66.4645 -372.907
rfemur -71.4196 -3.04555 42.42
rtibia -2.85425
rfoot -2.97696 1.90206
rtoes 35.0166
lfemur -93.7516 12.9284 -20.3684
ltibia 10.2397
lfoot 9.33371 -10.6473
ltoes 38.2628
1922
root 0.174706 16.5937 8.34923 76.0756 22.394 -8.43038
lowerback 42.0624 0.248973 0.741084
upperback 4.14365 0.485633 -0.928342
thorax -15.6257 0.143792 -1.65108
lowerneck 3.62605 -3.45072 -6.05705
upperneck -32.4229 -1.59096 15.4594
head -10.656 -1.86053 7.01316
rclavicle -2.78299e-014 -8.74653e-015
rhumerus -47.5985 9.53096 -89.462
rradius 145.565
rwrist -55.012
rhand 41.941 650.583
rfingers 7.12502
rthumb 63.9833 -78.2006
lclavicle -2.78299e-014 -8.74653e-015
lhumerus -56.1169 -15.6881 89.9646
lradius 143.501
lwrist 56.8822
lhand 46.4588 -15.9708
lfingers 7.12502
lthumb 67.4805 -373.554
rfemur -73.2021 -3.11969 44.4213
rtibia -2.79818
rfoot -2.24321 3.94668
rtoes 34.7746
lfemur -95.5387 12.5853 -20.8107
ltibia 10.4026
lfoot 9.01152 -10.8535
ltoes 37.1224
